<svg width="12" height="12" viewBox="0 0 12 12" fill="none" xmlns="http://www.w3.org/2000/svg">
<path fill-rule="evenodd" clip-rule="evenodd" d="M1.2 12H6C9.36 12 12 9.36 12 6C12 2.7 9.3 0 6 0C2.7 0 0 2.7 0 6V10.8C0 11.46 0.54 12 1.2 12ZM3.6 6C3.6 6.33137 3.33137 6.6 3 6.6C2.66863 6.6 2.4 6.33137 2.4 6C2.4 5.66863 2.66863 5.4 3 5.4C3.33137 5.4 3.6 5.66863 3.6 6ZM9 6.6C9.33137 6.6 9.6 6.33137 9.6 6C9.6 5.66863 9.33137 5.4 9 5.4C8.66863 5.4 8.4 5.66863 8.4 6C8.4 6.33137 8.66863 6.6 9 6.6ZM6.6 6C6.6 6.33137 6.33137 6.6 6 6.6C5.66863 6.6 5.4 6.33137 5.4 6C5.4 5.66863 5.66863 5.4 6 5.4C6.33137 5.4 6.6 5.66863 6.6 6Z" fill="#696969"/>
</svg>
