<svg width="80" height="80" viewBox="0 0 80 80" fill="none" xmlns="http://www.w3.org/2000/svg">
<path d="M30.6341 40L32.1951 41.561L38.8292 34.9268V49.3659H41.1707V34.9268L47.8048 41.561L49.3658 40L39.9999 30.6342L30.6341 40Z" fill="black"/>
<path d="M40 72C22.439 72 8 57.561 8 40C8 22.439 22.439 8 40 8C57.561 8 72 22.439 72 40C72 57.561 57.561 72 40 72ZM40 9.56098C23.2195 9.56098 9.56098 23.2195 9.56098 40C9.56098 56.7805 23.2195 70.439 40 70.439C56.7805 70.439 70.439 56.7805 70.439 40C70.439 23.2195 56.7805 9.56098 40 9.56098Z" fill="#D8D8D8"/>
</svg>
